# xmcd
#
# Track frame offsets:
#	150
#	9421
#	22942
#	37596
#	47163
#	61108
#	75375
#	88286
#	103228
#	116841
#	127332
#
# Disc length: 1925 seconds
#
# Revision: 0
# Processed by: cddbd v1.4PL0 Copyright (c) Steve Scherf et al.
# Submitted via: dBpowerAMP V4.0
#
DISCID=8507830b
DTITLE=Chris Dee - Lovin' Country
DYEAR=2003
DGENRE=Country
TTITLE0=Walking After Midnight (2:01)
TTITLE1=I'll Get Over You (2:58)
TTITLE2=Satin Sheets (3:13)
TTITLE3=Back In Baby's Arms (2:05)
TTITLE4=Coal Miner's Daughter (3:03)
TTITLE5=Coat Of Many Colors (3:08)
TTITLE6=Delta Dawn (2:50)
TTITLE7=Funny Face (3:17)
TTITLE8=Rocky Top (2:59)
TTITLE9=You're Looking At Country (2:15)
TTITLE10=Your Cheating Heart (3:47)
EXTD=14 year old Chris Dee doesn't have any contract with any label as of yet   - but feel she will make it  because																																																																																																																																										
EXTD=																																																																																																																																												14 year r old Chris Dee  as of yet have any contract with any major label  - but i feel it won't be long befo
EXTD=re she does. She has her own style of singing  ,unlike other's i've heard that sound  like copy cats of today  - She wowed the audious at Lake Winniefasoka a theme park on the edge of the Ga. , and Tnn. bordor  - yours truly Larry Wayne Nicholson 170
EXTD=2 Lawson Avenue Dalton Ga. 30720 														
EXTT0=
EXTT1=
EXTT2=
EXTT3=
EXTT4=
EXTT5=
EXTT6=
EXTT7=
EXTT8=
EXTT9=
EXTT10=
PLAYORDER=
